<svg width="60" height="60" viewBox="0 0 60 60" fill="none" xmlns="http://www.w3.org/2000/svg">
<path d="M57.9375 10.4998C57.75 9.74978 57 9.37478 56.25 9.37478H50.625V3.74978C50.625 2.99978 50.25 2.24978 49.5 2.06228C48.75 1.68728 48 1.87478 47.4375 2.43728L39.9375 9.93728C39.5625 10.3123 39.375 10.6873 39.375 11.2498V17.9998L28.6875 28.6873C27.9375 29.4373 27.9375 30.5623 28.6875 31.3123C29.0625 31.6873 29.625 31.8748 30 31.8748C30.375 31.8748 30.9375 31.6873 31.3125 31.3123L42 20.6248H48.75C49.3125 20.6248 49.6875 20.4373 50.0625 20.0623L57.5625 12.5623C58.125 11.9998 58.3125 11.2498 57.9375 10.4998Z" fill="#572E91"/>
<path d="M33.9375 33.9375C33 35.0625 31.5 35.625 30 35.625C28.5 35.625 27 35.0625 26.0625 33.9375C23.8125 31.6875 23.8125 28.125 26.0625 26.0625L31.3125 20.8125C30.9375 20.625 30.375 20.625 30 20.625C24.75 20.625 20.625 24.75 20.625 30C20.625 35.25 24.75 39.375 30 39.375C35.25 39.375 39.375 35.25 39.375 30C39.375 29.625 39.375 29.0625 39.1875 28.6875L33.9375 33.9375Z" fill="#572E91"/>
<path d="M52.6875 22.6875C51.75 23.8125 50.25 24.375 48.75 24.375H43.5L42.1875 25.6875C42.75 27 42.9375 28.5 42.9375 30C42.9375 37.3125 37.125 43.125 29.8125 43.125C22.5 43.125 16.6875 37.3125 16.6875 30C16.6875 22.6875 22.5 16.875 29.8125 16.875C31.3125 16.875 32.8125 17.25 34.125 17.625L35.625 16.5V11.25C35.625 9.75 36.1875 8.25 37.3125 7.3125L39.1875 5.4375C36.1875 4.3125 33.1875 3.75 30 3.75C15.5625 3.75 3.75 15.5625 3.75 30C3.75 44.4375 15.5625 56.25 30 56.25C44.4375 56.25 56.25 44.4375 56.25 30C56.25 26.8125 55.6875 23.8125 54.5625 20.8125L52.6875 22.6875Z" fill="#572E91"/>
</svg>
