<svg width="55" height="55" viewBox="0 0 55 55" fill="none" xmlns="http://www.w3.org/2000/svg">
<path d="M20.5977 11.5977H16.0977C13.6124 11.5977 11.5977 13.6124 11.5977 16.0977V43.0977C11.5977 45.583 13.6124 47.5977 16.0977 47.5977H20.5977M34.0977 11.5977H38.5977C41.083 11.5977 43.0977 13.6124 43.0977 16.0977V20.5977" stroke="#572E91" stroke-width="3.75" stroke-linecap="round" stroke-linejoin="round"/>
<path d="M33.8771 46.0998L28.957 47.0838L29.941 42.1639C30.0283 41.7283 30.2422 41.3283 30.5563 41.0142L39.7226 31.8477L44.2226 27.3477L48.6931 31.8182L44.1931 36.3182L35.0269 45.4845C34.7128 45.7986 34.3127 46.0128 33.8771 46.0998Z" stroke="#572E91" stroke-width="3.75" stroke-linecap="round" stroke-linejoin="round"/>
<path d="M20.5977 11.5977C20.5977 9.11237 22.6124 7.09766 25.0977 7.09766H29.5977C32.083 7.09766 34.0977 9.11237 34.0977 11.5977V16.0977H20.5977V11.5977Z" stroke="#572E91" stroke-width="3.75" stroke-linecap="round" stroke-linejoin="round"/>
</svg>
