<svg width="18" height="18" viewBox="0 0 18 18" fill="none" xmlns="http://www.w3.org/2000/svg">
<path d="M15.6557 10.0841C15.8957 10.8966 15.3784 11.5798 14.5469 11.4321C14.6577 12.2443 13.8632 12.9646 12.9022 12.5028C13.2717 13.4443 12.4029 13.9798 11.7194 13.5736C12.0702 13.9983 11.5162 15.4386 9.37269 14.0721L8.96194 13.8463L4.12769 11.1876L3.76294 10.9871C3.76294 10.9871 1.97969 9.53158 1.62869 8.92233C0.530686 7.02358 1.86594 3.97483 4.23869 3.46733L6.22444 3.11133L7.53419 5.09808L10.8024 6.59908L14.0002 8.39458L14.9214 9.33658L15.6557 10.0841Z" fill="#592E81"/>
<path d="M15.6553 10.0842C17.3355 8.938 16.9155 5.32675 15.6305 3.74425C13.3088 3.3795 12.8805 3.15375 10.3855 2.7585L7.003 2.604C6.76073 2.5404 6.5034 2.57022 6.28208 2.68752C6.06076 2.80483 5.89163 3.00105 5.80825 3.23725C5.6067 3.97368 5.3039 4.67858 4.9085 5.33175C4.82091 5.54615 4.82086 5.78634 4.90836 6.00078C4.99585 6.21522 5.16393 6.38682 5.3765 6.47875C5.8535 6.59775 6.0715 6.38225 6.4915 6.05725C6.85131 5.71366 7.17049 5.32989 7.44275 4.9135L10.8528 6.4645L14.0328 8.2555C14.6613 8.67975 15.2858 9.71625 15.6603 10.0855M7.87725 13.5372C7.98575 13.3712 8.15525 13.2544 8.34912 13.2123C8.54299 13.1702 8.74564 13.2061 8.91325 13.3122C9.2645 13.5155 9.523 13.9027 9.28275 14.328L8.83925 15.1032C8.72073 15.2628 8.54815 15.3737 8.3538 15.4152C8.15944 15.4567 7.95662 15.426 7.78327 15.3288C7.60991 15.2316 7.4779 15.0746 7.41191 14.8871C7.34593 14.6997 7.35049 14.4946 7.42475 14.3102L7.87725 13.5367V13.5372ZM6.45975 12.7447C6.56824 12.5787 6.73775 12.4619 6.93162 12.4198C7.12549 12.3777 7.32814 12.4136 7.49575 12.5197C7.847 12.723 8.1055 13.1102 7.86525 13.5355L7.42175 14.3107C7.30321 14.4702 7.13067 14.5809 6.93639 14.6224C6.74211 14.6639 6.53938 14.6332 6.36608 14.5361C6.19279 14.4389 6.06079 14.282 5.99475 14.0947C5.92871 13.9073 5.93316 13.7023 6.00725 13.518L6.45975 12.7447Z" fill="#592E81"/>
<path d="M5.0447 11.9544C5.15319 11.7883 5.3227 11.6716 5.51657 11.6295C5.71043 11.5874 5.91309 11.6233 6.0807 11.7294C6.43195 11.9327 6.69045 12.3199 6.4502 12.7452L6.0067 13.5204C5.88815 13.6798 5.71562 13.7906 5.52134 13.8321C5.32706 13.8736 5.12432 13.8429 4.95103 13.7457C4.77773 13.6486 4.64573 13.4917 4.57969 13.3044C4.51366 13.117 4.5181 12.912 4.5922 12.7277L5.0447 11.9544Z" fill="#592E81"/>
<path d="M3.63259 11.1624C3.74108 10.9963 3.91059 10.8796 4.10446 10.8375C4.29832 10.7954 4.50098 10.8313 4.66859 10.9374C5.01984 11.1407 5.27834 11.5279 5.03809 11.9532L4.59459 12.7284C4.47605 12.8878 4.30351 12.9986 4.10923 13.0401C3.91495 13.0816 3.71222 13.0509 3.53892 12.9537C3.36562 12.8566 3.23362 12.6997 3.16758 12.5124C3.10155 12.325 3.10599 12.12 3.18009 11.9357L3.63259 11.1624Z" fill="#592E81"/>
<path d="M3.76294 10.9875C3.76294 10.9875 1.97969 9.53202 1.62869 8.92277C0.530686 7.02402 1.86594 3.97527 4.23869 3.46777M9.67794 10.7475L12.9004 12.5028M8.46794 11.9475L11.7179 13.572M14.5454 11.43L13.2704 10.3405L11.2007 9.25677M7.44344 4.91352L10.8534 6.46452L14.0334 8.25552C14.6619 8.68002 15.2864 9.71652 15.6609 10.0858" stroke="white" stroke-width="0.2" stroke-linecap="round" stroke-linejoin="round"/>
<path d="M9.37323 14.0725C11.5167 15.439 12.0707 13.9987 11.72 13.574C12.4035 13.9802 13.2722 13.4447 12.9027 12.5032C13.8637 12.965 14.6582 12.2447 14.5475 11.4325C15.379 11.5802 15.8962 10.897 15.6562 10.0845C17.3365 8.93825 16.9165 5.327 15.6315 3.7445C13.3097 3.37975 12.8815 3.154 10.3865 2.75875L7.00398 2.604C6.7617 2.5404 6.50437 2.57022 6.28306 2.68752C6.06174 2.80483 5.89261 3.00105 5.80923 3.23725C5.60768 3.97368 5.30487 4.67858 4.90948 5.33175C4.82189 5.54615 4.82184 5.78634 4.90933 6.00078C4.99683 6.21522 5.1649 6.38682 5.37748 6.47875C5.85448 6.598 6.07248 6.38225 6.49248 6.05725C6.85229 5.71366 7.17146 5.32989 7.44373 4.9135" stroke="white" stroke-width="0.2" stroke-linecap="round" stroke-linejoin="round"/>
<path d="M7.87821 13.5379C7.98671 13.3718 8.15621 13.2551 8.35008 13.213C8.54395 13.1709 8.7466 13.2068 8.91421 13.3129C9.26546 13.5162 9.52396 13.9034 9.28371 14.3287L8.84021 15.1039C8.72169 15.2635 8.54912 15.3744 8.35476 15.4159C8.16041 15.4574 7.95758 15.4267 7.78423 15.3295C7.61087 15.2323 7.47886 15.0753 7.41287 14.8878C7.34689 14.7004 7.35145 14.4953 7.42571 14.3109L7.87821 13.5374V13.5379ZM6.46071 12.7454C6.56921 12.5793 6.73871 12.4626 6.93258 12.4205C7.12645 12.3784 7.3291 12.4143 7.49671 12.5204C7.84796 12.7237 8.10646 13.1109 7.86621 13.5362L7.42271 14.3114C7.30417 14.4709 7.13163 14.5816 6.93735 14.6231C6.74307 14.6646 6.54034 14.6339 6.36704 14.5368C6.19375 14.4396 6.06175 14.2827 5.99571 14.0954C5.92967 13.908 5.93412 13.703 6.00821 13.5187L6.46071 12.7454Z" stroke="white" stroke-width="0.2" stroke-linecap="round" stroke-linejoin="round"/>
<path d="M5.04568 11.9554C5.15417 11.7893 5.32367 11.6726 5.51754 11.6305C5.71141 11.5884 5.91406 11.6243 6.08168 11.7304C6.43293 11.9337 6.69143 12.3209 6.45118 12.7462L6.00768 13.5214C5.88913 13.6808 5.7166 13.7916 5.52231 13.8331C5.32803 13.8745 5.1253 13.8438 4.952 13.7467C4.77871 13.6496 4.64671 13.4927 4.58067 13.3053C4.51463 13.118 4.51908 12.913 4.59318 12.7287L5.04568 11.9554Z" stroke="white" stroke-width="0.2" stroke-linecap="round" stroke-linejoin="round"/>
<path d="M3.63259 11.1624C3.74108 10.9963 3.91059 10.8796 4.10446 10.8375C4.29832 10.7954 4.50098 10.8313 4.66859 10.9374C5.01984 11.1407 5.27834 11.5279 5.03809 11.9532L4.59459 12.7284C4.47605 12.8878 4.30351 12.9986 4.10923 13.0401C3.91495 13.0816 3.71222 13.0509 3.53892 12.9537C3.36562 12.8566 3.23362 12.6997 3.16758 12.5124C3.10155 12.325 3.10599 12.12 3.18009 11.9357L3.63259 11.1624Z" stroke="white" stroke-width="0.2" stroke-linecap="round" stroke-linejoin="round"/>
</svg>
