<svg width="90" height="78" viewBox="0 0 90 78" fill="none" xmlns="http://www.w3.org/2000/svg">
<path d="M44.8359 21.2852C50.5756 21.2852 55.2285 16.6322 55.2285 10.8926C55.2285 5.15292 50.5756 0.5 44.8359 0.5C39.0963 0.5 34.4434 5.15292 34.4434 10.8926C34.4434 16.6322 39.0963 21.2852 44.8359 21.2852Z" fill="#572E91"/>
<path d="M81.2167 39.4835L71.5308 37.463C68.2308 36.7717 64.9729 38.2842 63.2504 40.9731C61.5775 40.1138 59.7785 39.3728 57.865 38.7578V32.9981C57.8689 28.6402 54.3014 25.0767 49.9589 25.0767H40.0552C35.6897 25.0767 32.1376 28.6402 32.1376 32.9981V38.7883C30.2432 39.3917 28.4634 40.1327 26.779 40.9959C25.0565 38.2955 21.7947 36.7717 18.4908 37.463L8.79711 39.4835C4.54227 40.3734 1.78079 44.5939 2.67071 48.8639L5.10374 60.4864C5.98605 64.745 10.2103 67.5064 14.469 66.6165L17.5359 65.9748C19.0712 68.2436 21.1949 70.3251 23.9143 72.105C29.5784 75.8175 37.0607 77.8647 45.0012 77.8647C57.1507 77.8647 67.6159 72.9797 72.4359 65.9633L75.5526 66.6165C79.8074 67.5025 84.0317 64.745 84.914 60.4864L87.3507 48.8639C88.2367 44.5939 85.4753 40.3734 81.2167 39.4835ZM44.9973 73.8963C37.8244 73.8963 31.1022 72.0897 26.0874 68.7859C24.3686 67.663 22.944 66.4141 21.8021 65.0773L24.151 64.5845C28.4135 63.6985 31.175 59.478 30.285 55.2156L28.1041 44.7656C29.376 44.082 30.7128 43.4823 32.1336 42.9705V44.8765C32.1336 49.2267 35.6933 52.7903 40.0512 52.7903H49.9549C54.3014 52.7903 57.8611 49.223 57.8611 44.8765V42.8712C59.3086 43.3868 60.6683 43.9789 61.9288 44.6511L59.7173 55.2195C58.835 59.4819 61.5926 63.7024 65.855 64.5884L68.2268 65.0849C63.8041 70.3214 55.0538 73.8963 44.9973 73.8963Z" fill="#572E91"/>
<path d="M79.1074 34.9492C84.8471 34.9492 89.5 30.2963 89.5 24.5566C89.5 18.817 84.8471 14.1641 79.1074 14.1641C73.3678 14.1641 68.7148 18.817 68.7148 24.5566C68.7148 30.2963 73.3678 34.9492 79.1074 34.9492Z" fill="#572E91"/>
<path d="M13.0249 34.731C18.647 33.5546 22.2373 28.0433 21.0762 22.4249C19.8921 16.8103 14.3922 13.2048 8.76616 14.3812C3.15165 15.5537 -0.453896 21.0613 0.722515 26.6797C1.89521 32.3018 7.40277 35.9037 13.0249 34.731Z" fill="#572E91"/>
</svg>
