<svg width="80" height="81" viewBox="0 0 80 81" fill="none" xmlns="http://www.w3.org/2000/svg">
<g clip-path="url(#clip0_1574_16203)">
<path d="M45.3878 11.4737C46.3 10.3188 46.864 8.86258 46.864 7.28031C46.864 3.54149 43.8316 0.5 40.0927 0.5C36.3539 0.5 33.317 3.54149 33.317 7.28031C33.317 8.86288 33.801 10.3188 34.7126 11.4737C31.9211 13.2433 30 16.3581 30 19.9009V28.1501C30 29.4057 31.1471 30.4955 32.4026 30.4955H47.8013C49.0569 30.4955 50.0021 29.4054 50.0021 28.1501V19.9009C50.0018 16.3581 48.1798 13.243 45.3878 11.4737Z" fill="#572E91"/>
<path d="M24.8475 38.2429V29.9936C24.8475 26.4512 23.1037 23.3357 20.3116 21.5665C21.2238 20.4115 21.8269 18.9554 21.8269 17.3731C21.8269 13.6343 18.8139 10.5928 15.0751 10.5928C11.3363 10.5928 8.30903 13.6346 8.30903 17.3734C8.30903 18.956 8.8712 20.4118 9.7828 21.5668C6.99103 23.3364 5.14844 26.4512 5.14844 29.9939V38.2432C5.14844 39.4987 6.14883 40.497 7.4041 40.497H22.8028C24.0583 40.4967 24.8475 39.4984 24.8475 38.2429Z" fill="#572E91"/>
<path d="M70.3195 21.5665C71.2311 20.4115 71.8366 18.9554 71.8366 17.3731C71.8366 13.6343 68.8245 10.5928 65.0857 10.5928C61.3468 10.5928 58.3199 13.6343 58.3199 17.3731C58.3199 18.9557 58.8784 20.4115 59.7903 21.5665C56.9986 23.3361 55.1523 26.4509 55.1523 29.9936V38.2429C55.1523 39.4984 56.1603 40.4967 57.4159 40.4967H72.8146C74.0701 40.4967 74.8514 39.4984 74.8514 38.2429V29.9936C74.8514 26.4509 73.1109 23.3357 70.3195 21.5665Z" fill="#572E91"/>
<path d="M45.3878 61.555C46.3 60.4 46.864 58.9441 46.864 57.3619C46.864 53.623 43.8316 50.5815 40.0927 50.5815C36.3539 50.5815 33.317 53.623 33.317 57.3619C33.317 58.9441 33.801 60.4003 34.7126 61.5553C31.9211 63.3248 30 66.4397 30 69.9824V78.2316C30 79.4872 31.1471 80.4997 32.4026 80.4997H47.8013C49.0569 80.4997 50.0021 79.4869 50.0021 78.2316V69.9824C50.0018 66.4393 48.1798 63.3248 45.3878 61.555ZM40.1018 55.1274C41.3338 55.1274 42.3363 56.1299 42.3363 57.3619C42.3363 58.5941 41.3338 59.5963 40.1018 59.5963C38.8699 59.5963 37.8674 58.5938 37.8674 57.3619C37.8674 56.1299 38.8696 55.1274 40.1018 55.1274ZM45.456 75.9538H34.5459V69.9824C34.5459 66.99 37.0088 64.5558 40.0012 64.5558C42.993 64.5558 45.456 66.99 45.456 69.9824V75.9538Z" fill="#572E91"/>
<path d="M42.122 42.4902V34.958C42.122 33.7024 41.1047 32.6851 39.8491 32.6851C38.5935 32.6851 37.5762 33.7024 37.5762 34.958V42.4902C37.5762 43.7458 38.5935 44.7631 39.8491 44.7631C41.1044 44.7631 42.122 43.7455 42.122 42.4902Z" fill="#572E91"/>
<path d="M17.9806 42.9817C17.0687 42.1189 15.631 42.158 14.767 43.0693C13.9039 43.9809 13.9433 45.4195 14.8546 46.2829L26.2826 57.1042C26.7223 57.5203 27.2842 57.7267 27.8451 57.7267C28.4473 57.7267 29.0489 57.4885 29.4959 57.0166C30.359 56.105 30.3196 54.6664 29.4083 53.803L17.9806 42.9817Z" fill="#572E91"/>
<path d="M62.2005 42.9496L50.8037 53.7957C49.8942 54.6609 49.8588 56.0998 50.724 57.009C51.1707 57.4788 51.7702 57.7151 52.3708 57.7151C52.9336 57.7151 53.4976 57.5072 53.9373 57.0887L65.3341 46.2426C66.2436 45.3774 66.2791 43.9387 65.4138 43.0296C64.5486 42.1195 63.1097 42.0846 62.2005 42.9496Z" fill="#572E91"/>
</g>
<defs>
<clipPath id="clip0_1574_16203">
<rect width="80" height="80" fill="white" transform="translate(0 0.5)"/>
</clipPath>
</defs>
</svg>
