<svg width="55" height="55" viewBox="0 0 55 55" fill="none" xmlns="http://www.w3.org/2000/svg">
<mask id="mask0_262_2054" style="mask-type:alpha" maskUnits="userSpaceOnUse" x="0" y="0" width="55" height="55">
<rect x="0.347656" y="0.347656" width="54" height="54" fill="#D9D9D9"/>
</mask>
<g mask="url(#mask0_262_2054)">
<path d="M32.9727 35.2227V23.9727H36.0664L39.7227 27.6289V35.2227H32.9727ZM29.5977 38.5977H43.0977V26.2227L37.4727 20.5977H29.5977V38.5977ZM9.34766 45.3477C8.11016 45.3477 7.05078 44.907 6.16953 44.0258C5.28828 43.1445 4.84766 42.0852 4.84766 40.8477V13.8477C4.84766 12.6102 5.28828 11.5508 6.16953 10.6695C7.05078 9.78828 8.11016 9.34766 9.34766 9.34766H22.8477L27.3477 13.8477H45.3477C46.5852 13.8477 47.6445 14.2883 48.5258 15.1695C49.407 16.0508 49.8477 17.1102 49.8477 18.3477V40.8477C49.8477 42.0852 49.407 43.1445 48.5258 44.0258C47.6445 44.907 46.5852 45.3477 45.3477 45.3477H9.34766ZM9.34766 40.8477H45.3477V18.3477H25.4914L20.9914 13.8477H9.34766V40.8477Z" fill="#572E91"/>
</g>
</svg>
