<svg width="100" height="101" viewBox="0 0 100 101" fill="none" xmlns="http://www.w3.org/2000/svg">
<g clip-path="url(#clip0_1_2939)">
<path d="M31.0427 53.5797C31.1022 53.5835 31.1608 53.5867 31.2203 53.5867C32.3948 53.5867 33.3918 52.6813 33.4843 51.4901L34.1296 43.1657L38.4914 40.0222V52.0972C38.4914 52.7043 38.6556 53.2709 38.9183 53.7716L34.022 74.0596C33.6694 75.526 34.5696 76.9983 36.0329 77.3515C36.2495 77.4031 36.4645 77.4261 36.6767 77.4261C37.9082 77.4261 39.0242 76.5881 39.326 75.34L43.9916 56.0052L49.2935 58.5337L48.8488 65.7107C48.7555 67.2127 49.8972 68.5092 51.4013 68.6013C51.4599 68.6051 51.5167 68.6069 51.5736 68.6069C53.0027 68.6069 54.2033 67.4935 54.2937 66.0481L54.8547 57.0334C54.9221 55.9236 54.3115 54.8814 53.3048 54.4038L45.7663 50.8097V42.8277L48.403 45.975C48.7777 46.4226 49.3105 46.7083 49.8881 46.774L57.9052 47.6832C57.9921 47.6919 58.0772 47.6975 58.1644 47.6975C59.3043 47.6975 60.2879 46.8407 60.4194 45.6813C60.5614 44.4338 59.663 43.308 58.4164 43.1659L51.3033 42.3608L45.5077 35.4437C45.3353 35.0043 45.0805 34.6074 44.7609 34.27C44.457 33.0946 43.3991 32.2227 42.1294 32.2227C41.1841 32.2227 40.353 32.7023 39.8637 33.4311L30.6184 40.0951C30.0769 40.4864 29.7331 41.0973 29.6826 41.7622L28.9545 51.1363C28.8551 52.3902 29.7917 53.484 31.0427 53.5797Z" fill="#572E91"/>
<path d="M44.5011 31.7874C47.618 31.7874 50.1448 29.2606 50.1448 26.1437C50.1448 23.0268 47.618 20.5 44.5011 20.5C41.3842 20.5 38.8574 23.0268 38.8574 26.1437C38.8574 29.2606 41.3842 31.7874 44.5011 31.7874Z" fill="#572E91"/>
<path d="M71.0819 51.1963L64.3858 53.2865L65.9272 54.8276L58.6065 60.6996C58.3916 60.872 58.2673 61.1327 58.2673 61.4082V69.5903H44.5008C43.9992 69.5903 43.5915 69.9971 43.5915 70.4993V78.6817H29.8252C29.3237 78.6817 28.916 79.0881 28.916 79.5906C28.916 80.093 29.3234 80.4998 29.8252 80.4998H44.5008C45.0023 80.4998 45.41 80.093 45.41 79.5906V71.4085H59.1763C59.677 71.4085 60.0855 71.0017 60.0855 70.4993V61.8451L67.2216 56.1203L68.9919 57.8906L71.0819 51.1963Z" fill="#572E91"/>
</g>
<defs>
<clipPath id="clip0_1_2939">
<rect width="60" height="60" fill="white" transform="translate(20 20.5)"/>
</clipPath>
</defs>
</svg>
