<svg width="55" height="55" viewBox="0 0 55 55" fill="none" xmlns="http://www.w3.org/2000/svg">
<mask id="mask0_262_2039" style="mask-type:alpha" maskUnits="userSpaceOnUse" x="0" y="0" width="55" height="55">
<rect x="0.347656" y="0.347656" width="54" height="54" fill="#D9D9D9"/>
</mask>
<g mask="url(#mask0_262_2039)">
<path d="M11.5977 47.5977C10.3602 47.5977 9.30078 47.157 8.41953 46.2758C7.53828 45.3945 7.09766 44.3352 7.09766 43.0977V11.5977C7.09766 10.3602 7.53828 9.30078 8.41953 8.41953C9.30078 7.53828 10.3602 7.09766 11.5977 7.09766H43.0977C44.3352 7.09766 45.3945 7.53828 46.2758 8.41953C47.157 9.30078 47.5977 10.3602 47.5977 11.5977V43.0977C47.5977 44.3352 47.157 45.3945 46.2758 46.2758C45.3945 47.157 44.3352 47.5977 43.0977 47.5977H11.5977ZM11.5977 11.5977V43.0977H43.0977V11.5977H38.5977V27.3477L32.9727 23.9727L27.3477 27.3477V11.5977H11.5977Z" fill="#572E91"/>
</g>
</svg>
