<svg width="82" height="87" viewBox="0 0 82 87" fill="none" xmlns="http://www.w3.org/2000/svg">
<path d="M25.9894 58.1814C23.9712 55.8758 21.8828 53.4791 20.229 49.9542C18.6102 46.4783 17.7132 42.8903 17.7412 39.1621C17.7762 35.4339 18.7223 31.5936 20.7826 27.6272C20.7966 27.5992 20.8106 27.5781 20.8246 27.5501C23.5227 22.981 27.2999 19.9256 31.5046 18.2157C35.0295 16.772 38.8628 16.2815 42.619 16.6249C46.3612 16.9683 50.0263 18.1456 53.2289 20.0377C57.3005 22.4484 60.6502 26.0224 62.4933 30.5355C63.4884 32.9812 64.1612 35.7072 64.2453 38.6926C64.3293 41.6709 63.8178 44.8805 62.4442 48.2723C60.3419 53.4791 55.4294 59.0574 52.2128 64.1801C52.0376 64.1451 51.8554 64.1381 51.6732 64.1661L47.3353 64.8108L53.9437 41.8251C54.1329 41.1734 53.7475 40.4936 53.0958 40.3044C52.444 40.1222 51.7643 40.5006 51.5751 41.1523L44.6583 65.2173L38.099 66.1914L31.1682 44.1587C31.6658 44.2568 32.1914 44.0396 32.4647 43.5771L37.3772 35.2167L39.879 40.9561C40.1523 41.5798 40.8741 41.8601 41.4908 41.5938C41.7991 41.4607 42.0234 41.2084 42.1425 40.9211L44.357 35.3288L46.9499 42.1685C47.1882 42.8062 47.896 43.1215 48.5337 42.8833C49.1714 42.645 49.4867 41.9372 49.2485 41.2995L45.5553 31.5586C45.4502 31.2152 45.1909 30.9209 44.8335 30.7807C44.2028 30.5284 43.488 30.8438 43.2357 31.4745L40.9442 37.27L38.6596 32.0281C38.5615 31.7969 38.3863 31.5936 38.155 31.4605C37.5734 31.1171 36.8165 31.3133 36.4802 31.895L30.5095 42.0564L30.082 40.7038C29.8788 40.0591 29.192 39.6947 28.5473 39.8979C27.9026 40.1012 27.5382 40.7879 27.7414 41.4327L35.6392 66.5558L30.8879 67.2636C29.7386 63.8648 27.9867 60.473 25.9894 58.1814ZM10.4951 13.3522C9.94145 12.8336 9.64712 12.1399 9.61909 11.4391C9.59106 10.7383 9.83633 10.0235 10.3479 9.46987C10.8665 8.91625 11.5603 8.62192 12.261 8.59388C12.9618 8.56585 13.6766 8.81113 14.2303 9.3227L18.6312 13.4223C19.1848 13.9409 19.4791 14.6346 19.5072 15.3354C19.5352 16.0432 19.2899 16.751 18.7783 17.3046C18.2598 17.8583 17.566 18.1526 16.8652 18.1806C16.1574 18.2087 15.4496 17.9634 14.896 17.4518L10.4951 13.3522ZM3.29801 43.6051C2.55518 43.6191 1.87542 43.3318 1.37085 42.8623C0.85928 42.3787 0.529911 41.706 0.501879 40.9421C0.473848 40.1853 0.76117 39.4845 1.24471 38.9729C1.72825 38.4613 2.40101 38.132 3.16486 38.1109L9.17059 37.9077C9.92743 37.8797 10.6282 38.167 11.1398 38.6505C11.6514 39.1341 11.9807 39.8068 12.0018 40.5707V40.6127H12.0088L12.0018 40.7108C11.9877 41.4186 11.7074 42.0564 11.2589 42.5399C10.7754 43.0515 10.1026 43.3738 9.33877 43.4019H9.29673V43.4089H9.23366L3.29801 43.6051ZM78.0858 35.0906L78.1769 35.0835C78.8917 35.0415 79.5574 35.2728 80.076 35.6932C80.6226 36.1347 80.994 36.7935 81.0781 37.5433V37.5713C81.0851 37.5713 81.0851 37.6484 81.0851 37.6624C81.1272 38.3772 80.8959 39.043 80.4754 39.5616C80.0339 40.1082 79.3752 40.4796 78.6254 40.5637L72.6477 41.1944C71.8908 41.2715 71.176 41.0332 70.6364 40.5917C70.0898 40.1502 69.7114 39.4915 69.6343 38.7416C69.5572 37.9918 69.7955 37.27 70.237 36.7304C70.6785 36.1838 71.3372 35.8054 72.087 35.7283C74.0843 35.511 76.0885 35.2798 78.0858 35.0906ZM66.2425 11.1658C66.67 10.5351 67.3007 10.1426 67.9874 10.0025C68.6742 9.86931 69.41 9.99545 70.0478 10.4159L70.0548 10.4229C70.6855 10.8434 71.0849 11.4811 71.2181 12.1679C71.3512 12.8547 71.2251 13.5905 70.8046 14.2282L67.4619 19.2248C67.0414 19.8555 66.4037 20.2549 65.7099 20.3951C65.0231 20.5282 64.2873 20.4021 63.6496 19.9816C63.0189 19.5612 62.6194 18.9164 62.4793 18.2297C62.3461 17.5429 62.4723 16.8071 62.8927 16.1694L66.2425 11.1658ZM40.2854 3.07871C40.3064 2.31485 40.6288 1.63509 41.1404 1.15155C41.6379 0.675017 42.3247 0.387695 43.0675 0.394703V0.387695C43.1306 0.387695 43.1937 0.394703 43.2568 0.401711C43.9505 0.457774 44.5742 0.773127 45.0227 1.24265C45.4993 1.74021 45.7866 2.41997 45.7796 3.16981H45.7866C45.7866 3.21887 45.7866 3.26792 45.7796 3.30997L45.6324 9.17554H45.6394C45.6394 9.23861 45.6324 9.30168 45.6254 9.36475C45.5693 10.0655 45.254 10.6822 44.7845 11.1307C44.2799 11.6073 43.6001 11.8946 42.8573 11.8876V11.8946C42.7942 11.8946 42.7312 11.8876 42.6681 11.8806C41.9673 11.8245 41.3506 11.5091 40.9021 11.0396C40.4256 10.5351 40.1383 9.8553 40.1453 9.11246H40.1383C40.1383 9.06341 40.1383 9.01436 40.1453 8.97231L40.2854 3.07871ZM50.5519 67.5579L50.1104 69.6252L49.9983 71.0969L32.2474 73.7388C32.1844 72.6807 32.0162 71.5384 31.7499 70.354L50.5519 67.5579ZM49.9633 74.3205L49.9773 75.2105L49.9983 75.5188C50.0474 76.1005 50.0544 76.6891 50.0193 77.2708L49.753 78.5532L33.2636 81.006L32.9762 80.3472L32.3315 77.7123L32.3175 76.9484L49.9633 74.3205ZM48.6668 81.931C47.8119 83.3956 46.6345 84.5379 45.289 85.3158C44.0907 86.0166 42.7522 86.416 41.4137 86.5001C40.0542 86.5842 38.6806 86.3249 37.4262 85.7223C36.5713 85.3018 35.7724 84.7201 35.0646 83.9633L48.6668 81.931Z" fill="#572E91"/>
</svg>
