<svg width="60" height="61" viewBox="0 0 60 61" fill="none" xmlns="http://www.w3.org/2000/svg">
<g clip-path="url(#clip0_1574_14943)">
<path d="M36.8066 7.83274C36.8066 9.06952 37.3554 10.3241 38.2099 11.0917C39.1954 10.921 39.9483 9.18576 39.9483 9.18576H42.0428C42.0428 10.233 41.494 11.3713 40.6395 12.1379C40.7589 12.1484 40.8741 12.0971 40.9956 12.0971C43.3058 12.0971 45.1845 10.1806 45.1845 7.86939C45.1845 5.55815 43.3058 3.66162 40.9956 3.66162C38.6854 3.66267 36.8066 5.5215 36.8066 7.83274Z" fill="#572E91"/>
<path d="M4.34375 20.3993C4.34375 22.7095 6.22248 24.5883 8.53267 24.5883C8.65415 24.5883 8.76935 24.716 8.88873 24.7055C8.03419 23.9379 7.48544 22.7996 7.48544 21.7524H9.5799C9.5799 21.7524 10.3329 23.4876 11.3183 23.6573C12.1728 22.8897 12.7216 21.7115 12.7216 20.4747C12.7216 18.1645 10.8429 16.2471 8.53267 16.2471C6.22248 16.2481 4.34375 18.0881 4.34375 20.3993Z" fill="#572E91"/>
<path d="M53.5625 4.28432L55.4873 3.64237L53.5625 3.00146V4.28432Z" fill="#572E91"/>
<path d="M42.5915 17.2573H41.4961L42.0438 18.6261L42.5915 17.2573Z" fill="#572E91"/>
<path d="M19.0037 40.6027H13.7676C13.1885 40.6027 12.7203 39.8278 12.7203 39.2497V34.0135C12.7203 33.7098 12.8523 33.4219 13.0816 33.2218C13.311 33.0239 13.6157 32.9318 13.9163 32.9768L20.9223 33.9779L27.9471 30.4666L27.6298 29.9901L26.9941 29.0371L20.4646 31.8353C20.23 31.9358 19.964 32.1024 19.7211 32.0196L13.5979 30.1304H10.6259V37.461H8.53143V30.1304H5.38974C3.65762 30.1304 2.24805 31.2332 2.24805 32.9663V43.7444H4.34251V34.3193H6.43697V58.4056H9.57866V44.4858C9.57866 43.9067 10.0468 43.7444 10.6259 43.7444H17.9565C18.5356 43.7444 19.0037 43.9067 19.0037 44.4858V52.1222H22.1454V43.4386C22.1454 41.7055 20.7358 40.6027 19.0037 40.6027Z" fill="#572E91"/>
<path d="M53.5621 16.2106C53.5621 16.7887 53.094 17.5637 52.5149 17.5637H44.846L43.0154 21.9882C42.8563 22.3861 42.4719 22.5705 42.0426 22.5705C41.6142 22.5705 41.2299 22.4249 41.0697 22.0269L39.2391 17.5637H37.1855L31.3608 22.2647L28.5898 27.7312L29.4758 29.0214L32.7934 24.0261C32.8584 23.9266 32.9421 23.8303 33.0364 23.7601L37.2253 20.6132C37.5416 20.3755 37.9678 20.3357 38.3218 20.5116C38.6768 20.6896 38.9009 21.0499 38.9009 21.4468V45.8389H42.0426V40.2969V31.9191C42.0426 31.34 42.5107 31.1776 43.0898 31.1776H50.4204C50.9995 31.1776 51.4676 31.34 51.4676 31.9191V39.5555H54.6093V30.8719C54.6093 29.1387 53.1998 28.036 51.4676 28.036H46.2315C45.6524 28.036 45.1843 27.261 45.1843 26.6829V20.3996C45.1843 19.8204 45.6524 19.6581 46.2315 19.6581H52.5149C54.247 19.6581 55.6566 17.9428 55.6566 16.2106V11.2803H53.5621V16.2106Z" fill="#572E91"/>
<path d="M40.9963 14.1161C44.4616 14.1161 47.2797 11.298 47.2797 7.8327C47.2797 4.36741 44.4616 1.54932 40.9963 1.54932C37.531 1.54932 34.7129 4.36741 34.7129 7.8327C34.7129 11.298 37.531 14.1161 40.9963 14.1161ZM40.9963 3.64273C43.3065 3.64273 45.1852 5.52146 45.1852 7.83165C45.1852 10.1418 43.3065 12.0206 40.9963 12.0206C40.8737 12.0206 40.7596 12.1483 40.6402 12.1379C41.4948 11.3713 42.0435 10.2329 42.0435 9.18572H39.949C39.949 9.18572 39.1961 10.921 38.2106 11.0906C37.3561 10.3241 36.8074 9.14592 36.8074 7.90914C36.8074 5.59896 38.6861 3.64273 40.9963 3.64273Z" fill="#572E91"/>
<path d="M8.53143 26.683C11.9967 26.683 14.8148 23.8649 14.8148 20.3996C14.8148 16.9343 11.9967 14.1162 8.53143 14.1162C5.06614 14.1162 2.24805 16.9343 2.24805 20.3996C2.24805 23.8649 5.06614 26.683 8.53143 26.683ZM8.53143 16.2107C10.8416 16.2107 12.7203 18.0894 12.7203 20.3996C12.7203 21.6364 12.1716 22.891 11.3171 23.6586C10.3316 23.4879 9.57866 21.7526 9.57866 21.7526H7.4842C7.4842 22.7998 8.03295 23.9382 8.88749 24.7048C8.7681 24.7152 8.65291 24.6639 8.53143 24.6639C6.22124 24.6639 4.34251 22.7475 4.34251 20.4362C4.34251 18.125 6.22124 16.2107 8.53143 16.2107Z" fill="#572E91"/>
<path d="M59.1301 2.64965L52.8467 0.555193C52.5252 0.445234 52.1765 0.500737 51.9032 0.698664C51.6298 0.89659 51.4686 1.21181 51.4686 1.54797V9.92581V15.4688H36.8074C36.5623 15.4688 36.3246 15.4018 36.1361 15.5578L29.8527 20.7175C29.7427 20.8107 29.6516 20.8872 29.5867 21.016L26.6168 26.9381L20.0045 29.7614L14.0992 27.9424C13.9924 27.9057 13.8803 28.0356 13.7683 28.0356H5.39045C2.50323 28.0356 0.154297 30.0787 0.154297 32.9659V44.4855C0.154297 45.0635 0.622409 45.8385 1.20153 45.8385H4.34322V58.4052H0.154297V60.4997H5.39045H10.6266H14.8155C15.3946 60.4997 15.8627 59.7247 15.8627 59.1467V54.2163H17.9572H23.1934H30.524C31.1031 54.2163 31.5712 53.4414 31.5712 52.8633V47.9329H37.8546H43.0907C43.6698 47.9329 44.138 47.158 44.138 46.5799V41.6496H50.4213H55.6575H58.7992V39.5551H56.7047V30.8715C56.7047 27.9842 54.3558 25.9411 51.4686 25.9411H47.2797V21.7522H52.5158C55.403 21.7522 57.752 19.0964 57.752 16.2102V9.92686C57.752 9.34774 57.2838 9.18542 56.7047 9.18542H53.563V6.49194L59.1301 4.63625C59.5584 4.49383 59.8464 4.09378 59.8464 3.64243C59.8464 3.19107 59.5584 2.79208 59.1301 2.64965ZM42.5912 17.2575L42.0435 18.6262L41.4958 17.2564H42.5912V17.2575ZM14.8155 52.1219C14.2364 52.1219 13.7683 52.2842 13.7683 52.8633V58.4052H11.6738V45.8385H16.91V52.1219H14.8155ZM19.0044 52.1219V44.4855C19.0044 43.9063 18.5363 43.744 17.9572 43.744H10.6266C10.0475 43.744 9.57937 43.9063 9.57937 44.4855V58.4052H6.43768V34.3189H4.34322V43.744H2.24876V32.9659C2.24876 31.2328 3.65833 30.13 5.39045 30.13H8.53214V37.4606H10.6266V30.13H13.5986L19.7207 32.0171C19.9637 32.0999 20.2297 32.0098 20.4643 31.9103L26.9938 29.0744L27.6294 30.0085L27.9467 30.4756L20.9219 33.9828L13.9159 32.9795C13.6154 32.9345 13.3106 33.0256 13.0813 33.2235C12.853 33.4215 12.7211 33.7084 12.7211 34.0131V39.2493C12.7211 39.8274 13.1892 40.6023 13.7683 40.6023H19.0044C20.7366 40.6023 22.1461 41.7051 22.1461 43.4382V52.1219H19.0044ZM30.524 45.8385C29.9449 45.8385 29.4767 46.0008 29.4767 46.5799V52.1219H24.2406V43.4382C24.2406 40.551 21.8917 38.5079 19.0044 38.5079H14.8155V35.2206L20.9502 36.0971C21.1617 36.1265 21.3754 36.0909 21.567 35.9966L29.9449 31.8077C30.0977 31.7312 30.2182 31.615 30.3156 31.4799C30.3239 31.4684 30.3397 31.4642 30.348 31.4527L34.4375 25.319L36.8074 23.5408V45.8385H30.524ZM49.3741 39.5551H44.138V33.2717H49.3741V39.5551ZM55.6575 16.2102C55.6575 17.9424 54.2479 19.6577 52.5158 19.6577H46.2324C45.6533 19.6577 45.1852 19.82 45.1852 20.3992V26.6825C45.1852 27.2606 45.6533 28.0356 46.2324 28.0356H51.4686C53.2007 28.0356 54.6103 29.1383 54.6103 30.8715V39.5551H51.4686V31.9187C51.4686 31.3396 51.0005 31.1772 50.4213 31.1772H43.0907C42.5116 31.1772 42.0435 31.3396 42.0435 31.9187V40.2965V45.8385H38.9018V21.4464C38.9018 21.0495 38.6777 20.6871 38.3227 20.5091C37.9687 20.3332 37.5425 20.3698 37.2262 20.6086L33.0373 23.7503C32.942 23.8205 32.8593 23.9074 32.7944 24.0069L29.4767 28.9833L28.5908 27.6533L31.3618 22.2632L37.1864 17.5633H39.2401L41.0706 21.9878C41.2298 22.3858 41.6152 22.5701 42.0435 22.5701C42.4718 22.5701 42.8562 22.4245 43.0164 22.0266L44.8469 17.5633H52.5158C53.0949 17.5633 53.563 16.7883 53.563 16.2102V11.2799H55.6575V16.2102ZM53.563 4.28438V3.00152L55.4878 3.64243L53.563 4.28438Z" fill="#572E91"/>
<path d="M27.3816 5.7373H25.2871V7.83176H27.3816V5.7373Z" fill="#572E91"/>
<path d="M23.1941 5.7373H21.0996V7.83176H23.1941V5.7373Z" fill="#572E91"/>
<path d="M19.0046 5.7373H16.9102V7.83176H19.0046V5.7373Z" fill="#572E91"/>
</g>
<defs>
<clipPath id="clip0_1574_14943">
<rect width="60" height="60" fill="white" transform="translate(0 0.5)"/>
</clipPath>
</defs>
</svg>
