<svg width="60" height="60" viewBox="0 0 60 60" fill="none" xmlns="http://www.w3.org/2000/svg">
<g clip-path="url(#clip0_1574_15002)">
<path d="M29.9859 50.2026C26.0748 50.2026 22.8056 52.978 22.0254 56.6619H37.9267C37.1661 52.978 33.897 50.2026 29.9859 50.2026Z" fill="#572E91"/>
<path d="M29.9856 41.8471C31.2794 41.8471 32.3461 40.7804 32.3461 39.4865C32.3461 38.1927 31.2794 37.126 29.9856 37.126C28.6917 37.126 27.625 38.1927 27.625 39.4865C27.625 40.7804 28.6917 41.8471 29.9856 41.8471Z" fill="#572E91"/>
<path d="M29.9859 46.8643C23.6748 46.8643 18.5391 52 18.5391 58.3111C18.5391 59.2296 19.2797 59.9802 20.2082 59.9802H39.7934C40.7119 59.9802 41.4625 59.2396 41.4625 58.3111C41.4328 52.01 36.297 46.8643 29.9859 46.8643ZM22.0255 56.6619C22.7958 52.978 26.0748 50.2026 29.9859 50.2026C33.8971 50.2026 37.1662 52.978 37.9464 56.6619H22.0255Z" fill="#572E91"/>
<path d="M29.9859 45.1754C33.1267 45.1754 35.6846 42.6272 35.6846 39.4766C35.6846 36.3358 33.1365 33.7778 29.9859 33.7778C26.8353 33.7778 24.2871 36.326 24.2871 39.4766C24.2871 42.6272 26.8451 45.1754 29.9859 45.1754ZM29.9859 37.126C31.2798 37.126 32.3464 38.1927 32.3464 39.4864C32.3464 40.7803 31.2798 41.8469 29.9859 41.8469C28.692 41.8469 27.6253 40.7803 27.6253 39.4864C27.6253 38.1729 28.692 37.126 29.9859 37.126Z" fill="#572E91"/>
<path d="M11.4464 8.0789C12.7402 8.0789 13.8069 7.0122 13.8069 5.71833C13.8069 4.42445 12.7402 3.35791 11.4464 3.35791C10.1525 3.35791 9.08594 4.42461 9.08594 5.71833C9.08594 7.01205 10.1526 8.0789 11.4464 8.0789Z" fill="#572E91"/>
<path d="M48.523 16.4248C44.6119 16.4248 41.3427 19.2002 40.5625 22.8841H56.4638C55.6933 19.2002 52.4242 16.4248 48.523 16.4248Z" fill="#572E91"/>
<path d="M11.4468 16.4248C7.53571 16.4248 4.26656 19.2002 3.48633 22.8841H19.3876C18.637 19.2002 15.3579 16.4248 11.4468 16.4248Z" fill="#572E91"/>
<path d="M48.5227 8.07905C49.8166 8.07905 50.8832 7.01236 50.8832 5.71848C50.8832 4.42461 49.8166 3.35791 48.5227 3.35791C47.2288 3.35791 46.1621 4.42461 46.1621 5.71848C46.1621 7.01236 47.2091 8.07905 48.5227 8.07905Z" fill="#572E91"/>
<path d="M11.4469 13.0962C5.13578 13.0962 0 18.232 0 24.5431C0 25.4616 0.740667 26.2122 1.6691 26.2122H21.2543C22.1728 26.2122 22.9234 25.4715 22.9234 24.5431C22.9136 18.232 17.7679 13.0962 11.4469 13.0962ZM3.5061 22.8839C4.27641 19.2 7.54555 16.4246 11.4469 16.4246C15.358 16.4246 18.6271 19.2 19.4074 22.8839H3.5061Z" fill="#572E91"/>
<path d="M11.4467 11.4073C14.5875 11.4073 17.1454 8.85911 17.1454 5.70852C17.1454 2.55794 14.5875 0.0195312 11.4467 0.0195312C8.30584 0.0195312 5.75781 2.56771 5.75781 5.7183C5.75781 8.86888 8.306 11.4073 11.4467 11.4073ZM11.4467 3.34795C12.7405 3.34795 13.8072 4.41465 13.8072 5.70852C13.8072 7.0024 12.7405 8.06909 11.4467 8.06909C10.1528 8.06909 9.08608 7.01233 9.08608 5.70852C9.08608 4.40471 10.1529 3.34795 11.4467 3.34795Z" fill="#572E91"/>
<path d="M48.5231 13.0962C42.212 13.0962 37.0762 18.232 37.0762 24.5431C37.0762 25.4616 37.8168 26.2122 38.7453 26.2122H58.3305C59.249 26.2122 59.9996 25.4715 59.9996 24.5431C59.9699 18.232 54.8342 13.0962 48.5231 13.0962ZM40.5626 22.8839C41.3329 19.2 44.6119 16.4246 48.5231 16.4246C52.4342 16.4246 55.7033 19.2 56.4835 22.8839H40.5626Z" fill="#572E91"/>
<path d="M48.523 11.4073C51.6638 11.4073 54.2218 8.85911 54.2218 5.70852C54.2218 2.55794 51.6638 0.0195312 48.523 0.0195312C45.3822 0.0195312 42.8242 2.56771 42.8242 5.7183C42.8242 8.86888 45.3823 11.4073 48.523 11.4073ZM48.523 3.34795C49.8169 3.34795 50.8836 4.41465 50.8836 5.70852C50.8836 7.0024 49.8169 8.06909 48.523 8.06909C47.2291 8.06909 46.1624 7.0024 46.1624 5.70852C46.1624 4.41465 47.2094 3.34795 48.523 3.34795Z" fill="#572E91"/>
<path d="M38.0748 8.55295L34.6773 3.60478C34.1539 2.84425 33.1266 2.65664 32.3859 3.18006L32.3464 3.19976C31.5858 3.72318 31.3982 4.75031 31.9216 5.49113L32.929 6.95291C28.929 6.42949 24.8204 6.96284 21.0377 8.53309L21.0278 8.54302C20.1883 8.89853 19.7834 9.8566 20.1389 10.706L20.1586 10.7258C20.5142 11.5653 21.4722 11.9701 22.3217 11.6146L22.3316 11.6047C25.6008 10.2515 29.1661 9.78739 32.623 10.2615L30.8057 11.5158C30.0551 12.0392 29.8576 13.0663 30.381 13.8071L30.4007 13.8467C30.9241 14.5973 31.9514 14.7948 32.6921 14.2714L37.6403 10.8739C38.4006 10.3504 38.6081 9.31348 38.0748 8.55295Z" fill="#572E91"/>
<path d="M17.8869 45.8268C15.0819 43.6738 12.919 40.8194 11.5857 37.5898L13.5412 38.5183C14.3708 38.9233 15.3685 38.5676 15.7634 37.7281C16.1684 36.8985 15.8127 35.9009 14.9732 35.5059L9.58063 32.9281C8.75105 32.5231 7.75341 32.8788 7.35848 33.7183L4.78066 39.1208C4.37564 39.9504 4.73131 40.948 5.57083 41.343C6.40041 41.748 7.39805 41.3923 7.79298 40.5528L8.56329 38.9331C10.1238 42.6763 12.6127 45.9651 15.8621 48.464C16.593 49.017 17.63 48.8887 18.2028 48.1578C18.756 47.4267 18.6178 46.3897 17.8869 45.8268Z" fill="#572E91"/>
<path d="M51.6053 31.1406C50.6967 31.022 49.8572 31.664 49.7387 32.5825C49.2745 36.0886 47.8818 39.3874 45.7486 42.1528L45.5807 39.9898C45.5115 39.0713 44.7115 38.3799 43.7831 38.4589C42.8646 38.5281 42.1733 39.3281 42.2522 40.2565L42.7263 46.2219C42.7955 47.1404 43.5955 47.8317 44.5239 47.7527L50.4893 47.2786C51.4078 47.2094 52.0991 46.4095 52.0201 45.4811C51.9509 44.5626 51.1509 43.8712 50.2225 43.9502L48.4645 44.0885C50.9238 40.8786 52.5139 37.0662 53.0472 33.0071C53.1558 32.0789 52.5238 31.2591 51.6053 31.1406Z" fill="#572E91"/>
</g>
<defs>
<clipPath id="clip0_1574_15002">
<rect width="60" height="60" fill="white"/>
</clipPath>
</defs>
</svg>
