<?xml version="1.0" encoding="UTF-8"?>
<svg version="1.1" xmlns="http://www.w3.org/2000/svg" width="259" height="194">
<path d="M0 0 C85.47 0 170.94 0 259 0 C259 64.02 259 128.04 259 194 C173.53 194 88.06 194 0 194 C0 129.98 0 65.96 0 0 Z " fill="#FEFEFE" transform="translate(0,0)"/>
<path d="M0 0 C0 41.25 0 82.5 0 125 C1.98 125 3.96 125 6 125 C6 83.75 6 42.5 6 0 C18.38074496 3.37656681 18.38074496 3.37656681 24.13671875 5.375 C25.37357422 5.80296875 26.61042969 6.2309375 27.88476562 6.671875 C28.51036377 6.89037109 29.13596191 7.10886719 29.78051758 7.33398438 C31.69422746 8.00234957 33.60962436 8.66567975 35.52539062 9.328125 C41.71744827 11.47738076 47.8609068 13.69784005 54 16 C54 51.97 54 87.94 54 125 C59.94 125 65.88 125 72 125 C72.0309375 128.6815625 72.0309375 128.6815625 72.0625 132.4375 C72.071604 133.21150146 72.08070801 133.98550293 72.09008789 134.78295898 C72.09724913 136.52221717 72.05024702 138.26145304 72 140 C70.28456066 141.71543934 68.10702249 141.12232668 65.81950754 141.12908131 C65.07146736 141.12616847 64.32342718 141.12325563 63.55271912 141.12025452 C62.36924907 141.12153615 62.36924907 141.12153615 61.16187054 141.12284368 C58.49778373 141.12450089 55.83375882 141.11897321 53.16967773 141.11352539 C51.26807659 141.11324354 49.36647534 141.1134012 47.46487427 141.1139679 C42.28533716 141.11425597 37.10582299 141.10835763 31.92629123 141.10139394 C26.51971473 141.09516206 21.11313776 141.09455673 15.70655823 141.09336853 C5.46074709 141.09025472 -4.78505343 141.08204067 -15.03085989 141.07201904 C-26.69208663 141.06085943 -38.35331386 141.05534784 -50.01454461 141.05032361 C-74.0097025 141.0398581 -98.00485021 141.02205735 -122 141 C-122 135.72 -122 130.44 -122 125 C-115.07 125 -108.14 125 -101 125 C-101 102.56 -101 80.12 -101 57 C-90.87149841 53.6238328 -90.87149841 53.6238328 -87.00268555 52.6496582 C-86.13536301 52.42965652 -85.26804047 52.20965485 -84.37443542 51.98298645 C-83.47098892 51.75785873 -82.56754242 51.53273102 -81.63671875 51.30078125 C-80.682314 51.0608696 -79.72790924 50.82095795 -78.74458313 50.57377625 C-76.74414633 50.07207218 -74.74325908 49.57216106 -72.74194336 49.07397461 C-69.67731268 48.3099603 -66.61499281 47.53713269 -63.55273438 46.76367188 C-61.60169557 46.27550952 -59.6505281 45.78786103 -57.69921875 45.30078125 C-56.78565109 45.06958084 -55.87208344 44.83838043 -54.93083191 44.60017395 C-53.6534893 44.28435616 -53.6534893 44.28435616 -52.3503418 43.9621582 C-51.23190132 43.6826104 -51.23190132 43.6826104 -50.09086609 43.39741516 C-48 43 -48 43 -44 43 C-44 70.06 -44 97.12 -44 125 C-42.02 125 -40.04 125 -38 125 C-38 87.71 -38 50.42 -38 12 C-3 0 -3 0 0 0 Z " fill="#CCCCCC" transform="translate(153,33)"/>
<path d="M0 0 C1.48021067 0.57602565 2.95597149 1.16359356 4.42749023 1.76147461 C5.21381332 2.07080429 6.00013641 2.38013397 6.81028748 2.69883728 C9.28975514 3.67692747 11.76286682 4.67004395 14.23608398 5.66381836 C15.92904416 6.33474841 17.62240049 7.00467977 19.31616211 7.67358398 C23.43996826 9.30466298 27.5581504 10.94923441 31.67358398 12.60131836 C31.67358398 15.57131836 31.67358398 18.54131836 31.67358398 21.60131836 C25.77716293 20.99737227 20.60850391 19.36312102 15.04858398 17.35131836 C14.16775146 17.04137939 13.28691895 16.73144043 12.37939453 16.41210938 C8.47138994 15.02560551 4.59959737 13.60717481 0.79467773 11.95678711 C-0.2971582 11.48885742 -1.38899414 11.02092773 -2.51391602 10.53881836 C-3.4355957 10.1147168 -4.35727539 9.69061523 -5.30688477 9.25366211 C-13.39255581 7.50682244 -22.67159271 12.22646089 -30.26391602 14.72631836 C-32.50134435 15.46069291 -34.73958544 16.19259736 -36.97875977 16.92163086 C-37.9583667 17.24405762 -38.93797363 17.56648438 -39.94726562 17.89868164 C-42.32641602 18.60131836 -42.32641602 18.60131836 -44.32641602 18.60131836 C-44.32641602 15.30131836 -44.32641602 12.00131836 -44.32641602 8.60131836 C-26.70519596 2.28466291 -26.70519596 2.28466291 -19.30688477 0.24194336 C-17.28953906 -0.33771523 -17.28953906 -0.33771523 -15.46531677 -1.44981384 C-10.60080649 -3.60782756 -4.81559501 -1.70568489 0 0 Z " fill="#CDCDCD" transform="translate(167.326416015625,20.398681640625)"/>
<path d="M0 0 C0 3.3 0 6.6 0 10 C-8.04223396 12.87289051 -16.25513789 14.96427985 -24.52270508 17.0715332 C-26.95701612 17.69247818 -29.38969788 18.31952984 -31.82226562 18.94726562 C-33.36969953 19.34410943 -34.91722239 19.74060662 -36.46484375 20.13671875 C-37.19186996 20.3241716 -37.91889618 20.51162445 -38.66795349 20.70475769 C-43.76924435 22 -43.76924435 22 -46 22 C-46 19.03 -46 16.06 -46 13 C-45.33693848 12.81937012 -44.67387695 12.63874023 -43.99072266 12.45263672 C-32.02627938 9.18096394 -20.10278723 5.89623844 -8.39697266 1.77880859 C-5.45819155 0.75525127 -3.13841038 0 0 0 Z " fill="#CDCDCD" transform="translate(108,62)"/>
<path d="M0 0 C0.92683594 0.00451172 1.85367188 0.00902344 2.80859375 0.01367188 C5.08075728 0.02538406 7.35288727 0.04331706 9.625 0.0625 C9.625 3.6925 9.625 7.3225 9.625 11.0625 C1.045 11.0625 -7.535 11.0625 -16.375 11.0625 C-16.375 7.7625 -16.375 4.4625 -16.375 1.0625 C-10.89230931 -0.09414737 -5.57160726 -0.05166255 0 0 Z " fill="#FDFDFD" transform="translate(137.375,146.9375)"/>
<path d="M0 0 C0 3.63 0 7.26 0 11 C-8.69638849 11.65721694 -17.2735804 12.11953999 -26 12 C-26 8.7 -26 5.4 -26 2 C-17.22453806 0.67361439 -8.89527816 -0.24370625 0 0 Z " fill="#FDFDFD" transform="translate(147,127)"/>
<path d="M0 0 C0 3.63 0 7.26 0 11 C-3.95783882 11.83574274 -7.91622736 12.66870268 -11.875 13.5 C-13.00292969 13.73847656 -14.13085938 13.97695312 -15.29296875 14.22265625 C-16.36933594 14.44824219 -17.44570312 14.67382812 -18.5546875 14.90625 C-19.54968262 15.11572266 -20.54467773 15.32519531 -21.56982422 15.54101562 C-24 16 -24 16 -26 16 C-26 12.7 -26 9.4 -26 6 C-22.6064026 4.99182252 -19.21047507 3.99321984 -15.8125 3 C-14.85279297 2.71382813 -13.89308594 2.42765625 -12.90429688 2.1328125 C-11.97294922 1.86210938 -11.04160156 1.59140625 -10.08203125 1.3125 C-9.22843018 1.06113281 -8.3748291 0.80976562 -7.49536133 0.55078125 C-5 0 -5 0 0 0 Z " fill="#FDFDFD" transform="translate(147,66)"/>
<path d="M0 0 C0 3.63 0 7.26 0 11 C-3.95801204 11.66862345 -7.91638106 12.33498796 -11.875 13 C-13.00292969 13.19078125 -14.13085938 13.3815625 -15.29296875 13.578125 C-16.36933594 13.75859375 -17.44570312 13.9390625 -18.5546875 14.125 C-19.54968262 14.29257813 -20.54467773 14.46015625 -21.56982422 14.6328125 C-24 15 -24 15 -26 15 C-26 11.7 -26 8.4 -26 5 C-6.6 0 -6.6 0 0 0 Z " fill="#FDFDFD" transform="translate(147,86)"/>
<path d="M0 0 C0 3.63 0 7.26 0 11 C-3.95740125 12.16991047 -7.91584001 13.33606988 -11.875 14.5 C-13.00292969 14.83386719 -14.13085938 15.16773438 -15.29296875 15.51171875 C-16.90751953 15.98544922 -16.90751953 15.98544922 -18.5546875 16.46875 C-19.54968262 16.76201172 -20.54467773 17.05527344 -21.56982422 17.35742188 C-24 18 -24 18 -26 18 C-26 14.7 -26 11.4 -26 8 C-22.04328884 6.6618184 -18.08437472 5.330278 -14.125 4 C-12.99707031 3.6184375 -11.86914062 3.236875 -10.70703125 2.84375 C-9.63066406 2.4828125 -8.55429688 2.121875 -7.4453125 1.75 C-6.45031738 1.41484375 -5.45532227 1.0796875 -4.43017578 0.734375 C-2 0 -2 0 0 0 Z " fill="#FEFEFE" transform="translate(147,45)"/>
<path d="M0 0 C0 3.3 0 6.6 0 10 C-2.91472635 10.97157545 -5.27597757 11.28253958 -8.32421875 11.53515625 C-9.35224609 11.62216797 -10.38027344 11.70917969 -11.43945312 11.79882812 C-12.51130859 11.88583984 -13.58316406 11.97285156 -14.6875 12.0625 C-15.77095703 12.15337891 -16.85441406 12.24425781 -17.97070312 12.33789062 C-20.64686187 12.56188629 -23.32339741 12.78137187 -26 13 C-26 9.7 -26 6.4 -26 3 C-17.16608791 0.92955185 -9.07960852 -0.14186888 0 0 Z " fill="#FDFDFD" transform="translate(147,107)"/>
<path d="M0 0 C2.64 0 5.28 0 8 0 C8 2.64 8 5.28 8 8 C5.36 8 2.72 8 0 8 C0 5.36 0 2.72 0 0 Z " fill="#F9F9F9" transform="translate(93,132)"/>
<path d="M0 0 C2.64 0 5.28 0 8 0 C8.04241723 2.33294775 8.04092937 4.66702567 8 7 C7 8 7 8 3.4375 8.0625 C2.303125 8.041875 1.16875 8.02125 0 8 C0 5.36 0 2.72 0 0 Z " fill="#FAFAFA" transform="translate(93,118)"/>
<path d="M0 0 C0 2.64 0 5.28 0 8 C-2.64 8.33 -5.28 8.66 -8 9 C-8 6.69 -8 4.38 -8 2 C-5.09399739 0.74335022 -3.20395416 0 0 0 Z " fill="#FAFAFA" transform="translate(101,92)"/>
<path d="M0 0 C1.134375 0.020625 2.26875 0.04125 3.4375 0.0625 C3.47991723 2.39544775 3.47842937 4.72952567 3.4375 7.0625 C2.4375 8.0625 2.4375 8.0625 -1.125 8.125 C-2.259375 8.104375 -3.39375 8.08375 -4.5625 8.0625 C-4.60491723 5.72955225 -4.60342937 3.39547433 -4.5625 1.0625 C-3.5625 0.0625 -3.5625 0.0625 0 0 Z " fill="#FAFAFA" transform="translate(97.5625,104.9375)"/>
<path d="M0 0 C1.4540625 0.0309375 1.4540625 0.0309375 2.9375 0.0625 C2.9375 2.7025 2.9375 5.3425 2.9375 8.0625 C0.6275 8.0625 -1.6825 8.0625 -4.0625 8.0625 C-4.10491723 5.72955225 -4.10342937 3.39547433 -4.0625 1.0625 C-3.0625 0.0625 -3.0625 0.0625 0 0 Z " fill="#F9F9F9" transform="translate(84.0625,118.9375)"/>
<path d="M0 0 C1.4540625 0.0309375 1.4540625 0.0309375 2.9375 0.0625 C2.97991723 2.39544775 2.97842937 4.72952567 2.9375 7.0625 C1.9375 8.0625 1.9375 8.0625 -1.125 8.125 C-2.094375 8.104375 -3.06375 8.08375 -4.0625 8.0625 C-4.10491723 5.72955225 -4.10342937 3.39547433 -4.0625 1.0625 C-3.0625 0.0625 -3.0625 0.0625 0 0 Z " fill="#F9F9F9" transform="translate(84.0625,106.9375)"/>
<path d="M0 0 C0 2.64 0 5.28 0 8 C-2.31 8 -4.62 8 -7 8 C-7 5.69 -7 3.38 -7 1 C-4 0 -4 0 0 0 Z " fill="#FAFAFA" transform="translate(87,95)"/>
<path d="M0 0 C2.31 0 4.62 0 7 0 C7 2.31 7 4.62 7 7 C5.00045254 7.04254356 2.99958364 7.04080783 1 7 C0 6 0 6 -0.0625 2.9375 C-0.041875 1.968125 -0.02125 0.99875 0 0 Z " fill="#FBFBFB" transform="translate(80,133)"/>
<path d="M0 0 C0 2.64 0 5.28 0 8 C-1.98 8 -3.96 8 -6 8 C-6 5.69 -6 3.38 -6 1 C-3.92446352 0.4465236 -2.15634036 0 0 0 Z " fill="#FBFBFB" transform="translate(75,97)"/>
<path d="M0 0 C1.98 0 3.96 0 6 0 C6 2.31 6 4.62 6 7 C4.02 7 2.04 7 0 7 C0 4.69 0 2.38 0 0 Z " fill="#FDFDFD" transform="translate(69,133)"/>
<path d="M0 0 C1.98 0 3.96 0 6 0 C6 2.31 6 4.62 6 7 C4.02 7 2.04 7 0 7 C0 4.69 0 2.38 0 0 Z " fill="#FCFCFC" transform="translate(69,121)"/>
<path d="M0 0 C1.98 0 3.96 0 6 0 C6 2.31 6 4.62 6 7 C4.02 7 2.04 7 0 7 C0 4.69 0 2.38 0 0 Z " fill="#FCFCFC" transform="translate(69,109)"/>
<path d="M0 0 C1.65 0 3.3 0 5 0 C5 2.31 5 4.62 5 7 C3.35 7 1.7 7 0 7 C0 4.69 0 2.38 0 0 Z " fill="#FCFCFC" transform="translate(59,100)"/>
<path d="M0 0 C1.65 0 3.3 0 5 0 C5 1.98 5 3.96 5 6 C3.35 6.33 1.7 6.66 0 7 C0 4.69 0 2.38 0 0 Z " fill="#FEFEFE" transform="translate(59,122)"/>
<path d="M0 0 C1.65 0 3.3 0 5 0 C5 1.98 5 3.96 5 6 C3.35 6.33 1.7 6.66 0 7 C0 4.69 0 2.38 0 0 Z " fill="#FEFEFE" transform="translate(59,134)"/>
<path d="M0 0 C1.65 0 3.3 0 5 0 C5 1.98 5 3.96 5 6 C3.35 6.33 1.7 6.66 0 7 C0 4.69 0 2.38 0 0 Z " fill="#FEFEFE" transform="translate(59,111)"/>
</svg>
